<?xml version="1.0" encoding="utf-8"?><!-- Uploaded to: SVG Repo, www.svgrepo.com, Generator: SVG Repo Mixer Tools -->
<svg fill="#000000" width="800px" height="800px" viewBox="0 0 24 24" id="check-lists" data-name="Flat Color" xmlns="http://www.w3.org/2000/svg" class="icon flat-color"><path id="secondary" d="M4.33,8h0a1,1,0,0,1-.74-.34L2.25,6.16a1,1,0,0,1,1.5-1.32l.58.66L6.25,3.34a1,1,0,0,1,1.5,1.32l-2.67,3A1,1,0,0,1,4.33,8Zm.75,5.66,2.67-3a1,1,0,0,0-1.5-1.32L4.33,11.5l-.58-.66a1,1,0,1,0-1.5,1.32l1.34,1.5a1,1,0,0,0,.74.34h0A1,1,0,0,0,5.08,13.66Zm0,6,2.67-3a1,1,0,0,0-1.5-1.32L4.33,17.5l-.58-.66a1,1,0,1,0-1.5,1.32l1.34,1.5a1,1,0,0,0,.74.34h0A1,1,0,0,0,5.08,19.66Z" style="fill: rgb(44, 169, 188);"></path><path id="primary" d="M21,19H11a1,1,0,0,1,0-2H21a1,1,0,0,1,0,2Zm0-6H11a1,1,0,0,1,0-2H21a1,1,0,0,1,0,2Zm0-6H11a1,1,0,0,1,0-2H21a1,1,0,0,1,0,2Z" style="fill: rgb(0, 0, 0);"></path></svg>