<?xml version="1.0" encoding="iso-8859-1"?>
<!-- Uploaded to: SVG Repo, www.svgrepo.com, Generator: SVG Repo Mixer Tools -->
<svg version="1.1" id="Layer_1" xmlns="http://www.w3.org/2000/svg" xmlns:xlink="http://www.w3.org/1999/xlink" 
	 viewBox="0 0 511.997 511.997" xml:space="preserve">
<rect x="170.669" y="192.33" style="fill:#434A54;" width="170.66" height="56.33"/>
<path style="fill:#48CFAD;" d="M389.216,495.997c23.422-29.218,37.453-66.312,37.453-106.67c0-94.25-76.422-170.672-170.67-170.672
	c-94.25,0-170.671,76.422-170.671,170.672c0,40.358,14.031,77.452,37.453,106.67H389.216z"/>
<path style="fill:#E6E9ED;" d="M323.874,321.453c-18.125-18.141-42.234-28.125-67.875-28.125s-49.75,9.984-67.875,28.125
	c-13,12.984-21.812,29.047-25.765,46.547h187.279C345.687,350.5,336.874,334.438,323.874,321.453z"/>
<g>
	<path style="fill:#434A54;" d="M245.327,380.047V336c0-5.891,4.781-10.672,10.672-10.672s10.672,4.781,10.672,10.672v44.047
		C266.671,385.938,245.327,385.938,245.327,380.047z"/>
	<path style="fill:#434A54;" d="M266.671,293.328c0,5.891-4.781,10.672-10.672,10.672s-10.672-4.781-10.672-10.672
		s4.781-10.672,10.672-10.672S266.671,287.438,266.671,293.328z"/>
	<path style="fill:#434A54;" d="M217.233,300.859c2.953,5.094,1.203,11.625-3.906,14.562c-5.094,2.953-11.625,1.203-14.562-3.891
		c-2.953-5.109-1.203-11.625,3.906-14.578C207.765,294.016,214.296,295.75,217.233,300.859z"/>
	<path style="fill:#434A54;" d="M178.187,332.094c5.109,2.938,6.859,9.469,3.906,14.562c-2.938,5.109-9.468,6.859-14.562,3.906
		c-5.109-2.938-6.859-9.469-3.906-14.562C166.562,330.891,173.093,329.141,178.187,332.094z"/>
	<path style="fill:#434A54;" d="M333.796,332.094c5.109-2.953,11.641-1.203,14.578,3.906c2.951,5.094,1.201,11.625-3.906,14.562
		c-5.094,2.953-11.625,1.203-14.562-3.906C326.952,341.562,328.702,335.031,333.796,332.094z"/>
	<path style="fill:#434A54;" d="M294.765,300.859c2.938-5.094,9.469-6.844,14.562-3.906c5.109,2.953,6.859,9.469,3.906,14.578
		c-2.938,5.094-9.469,6.844-14.562,3.891C293.561,312.484,291.811,305.953,294.765,300.859z"/>
</g>
<path style="fill:#37BC9B;" d="M309.327,421.327H202.671c-5.891,0-10.672,4.781-10.672,10.672s4.781,10.656,10.672,10.656h106.656
	c5.891,0,10.672-4.766,10.672-10.656S315.218,421.327,309.327,421.327z"/>
<g>
	<path style="fill:#FC6E51;" d="M223.999,122.657c0,35.359-28.656,64-64,64s-64-28.641-64-64c0-35.344,28.656-64,64-64
		C195.343,58.657,223.999,87.313,223.999,122.657z"/>
	<path style="fill:#FC6E51;" d="M415.997,101.329c0,35.344-28.656,64-64,64c-35.342,0-63.998-28.656-63.998-64s28.656-64,63.998-64
		C387.341,37.329,415.997,65.985,415.997,101.329z"/>
</g>
<circle style="fill:#ED5564;" cx="255.999" cy="80" r="64"/>
<g>
	<path style="fill:#434A54;" d="M277.327,37.329c0,5.891-4.766,10.672-10.656,10.672s-10.672-4.781-10.672-10.672
		s4.781-10.672,10.672-10.672S277.327,31.438,277.327,37.329z"/>
	<path style="fill:#434A54;" d="M383.997,112.001c0,5.891-4.781,10.656-10.672,10.656s-10.656-4.766-10.656-10.656
		s4.766-10.672,10.656-10.672S383.997,106.11,383.997,112.001z"/>
	<path style="fill:#434A54;" d="M138.671,90.657c0,5.891-4.781,10.672-10.672,10.672s-10.672-4.781-10.672-10.672
		s4.782-10.656,10.672-10.656S138.671,84.767,138.671,90.657z"/>
</g>
<path style="fill:#656D78;" d="M447.997,197.329c-64,0-319.998,0-383.997,0S0,112.001,0,112.001h511.997
	C511.997,112.001,511.997,197.329,447.997,197.329z"/>
<path style="fill:#37BC9B;" d="M255.999,272c-64.797,0-117.328,52.531-117.328,117.328h234.654
	C373.325,324.531,320.796,272,255.999,272z M188.124,321.453c18.125-18.141,42.234-28.125,67.875-28.125s49.75,9.984,67.875,28.125
	c13,12.984,21.812,29.047,25.764,46.547H162.359C166.312,350.5,175.124,334.438,188.124,321.453z"/>
</svg>